<svg width="226" height="31" viewBox="0 0 226 31" fill="none" xmlns="http://www.w3.org/2000/svg">
<path d="M77.2164 10.9459C77.1319 10.1958 76.7832 9.61466 76.1704 9.20261C75.5577 8.78527 74.7864 8.5766 73.8566 8.5766C73.191 8.5766 72.6152 8.68226 72.1292 8.89357C71.6431 9.09959 71.2654 9.38486 70.996 9.74937C70.7319 10.1086 70.5998 10.518 70.5998 10.9776C70.5998 11.3632 70.6896 11.6961 70.8692 11.976C71.0541 12.256 71.2945 12.4911 71.5903 12.6813C71.8914 12.8662 72.2137 13.022 72.5571 13.1488C72.9004 13.2703 73.2306 13.3707 73.5476 13.4499L75.1324 13.862C75.6501 13.9888 76.181 14.1605 76.7251 14.377C77.2693 14.5936 77.7738 14.8789 78.2386 15.2329C78.7035 15.5868 79.0786 16.0253 79.3639 16.5483C79.6544 17.0712 79.7997 17.6973 79.7997 18.4263C79.7997 19.3455 79.562 20.1616 79.0865 20.8748C78.6164 21.588 77.9322 22.1506 77.0342 22.5627C76.1414 22.9747 75.0611 23.1807 73.7932 23.1807C72.5782 23.1807 71.5269 22.9879 70.6394 22.6023C69.7519 22.2166 69.0572 21.6699 68.5554 20.962C68.0535 20.2488 67.7762 19.4036 67.7233 18.4263H70.1798C70.2274 19.0127 70.4175 19.5013 70.7504 19.8922C71.0885 20.2779 71.519 20.5658 72.042 20.756C72.5703 20.9409 73.1487 21.0333 73.7774 21.0333C74.4694 21.0333 75.0848 20.925 75.6237 20.7084C76.1678 20.4865 76.5957 20.1801 76.9074 19.7892C77.2191 19.393 77.3749 18.9308 77.3749 18.4025C77.3749 17.9218 77.2376 17.5282 76.9629 17.2218C76.6934 16.9154 76.3263 16.6618 75.8614 16.4611C75.4018 16.2603 74.8815 16.0834 74.3004 15.9302L72.3827 15.4072C71.0832 15.0532 70.053 14.5329 69.2923 13.8461C68.5369 13.1594 68.1592 12.2507 68.1592 11.1202C68.1592 10.1852 68.4127 9.36901 68.9199 8.67169C69.427 7.97437 70.1138 7.43289 70.9802 7.04725C71.8465 6.65633 72.8238 6.46086 73.9121 6.46086C75.0109 6.46086 75.9803 6.65368 76.8202 7.03932C77.6655 7.42496 78.3311 7.95588 78.8171 8.63207C79.3031 9.30298 79.5567 10.0743 79.5778 10.9459H77.2164ZM84.0452 18.7829L84.0293 15.8906H84.4414L89.291 10.7399H92.1278L86.5968 16.6037H86.2243L84.0452 18.7829ZM81.8661 22.9113V6.68274H84.2354V22.9113H81.8661ZM89.5524 22.9113L85.1942 17.1267L86.8266 15.4706L92.4606 22.9113H89.5524ZM95.1807 27.4756C94.8268 27.4756 94.5045 27.4465 94.214 27.3884C93.9234 27.3356 93.7068 27.2775 93.5642 27.2141L94.1347 25.2727C94.5679 25.3889 94.9535 25.4391 95.2916 25.4233C95.6297 25.4074 95.9282 25.2806 96.1871 25.0429C96.4512 24.8052 96.6836 24.4169 96.8844 23.8781L97.1776 23.0698L92.7242 10.7399H95.2599L98.3424 20.1854H98.4692L101.552 10.7399H104.095L99.0794 24.5358C98.8469 25.1697 98.5511 25.7059 98.1919 26.1444C97.8326 26.5881 97.4047 26.9209 96.9082 27.1428C96.4116 27.3647 95.8358 27.4756 95.1807 27.4756ZM108.291 22.9113L104.71 10.7399H107.158L109.543 19.6783H109.662L112.055 10.7399H114.504L116.881 19.6387H117L119.369 10.7399H121.818L118.244 22.9113H115.827L113.355 14.1235H113.173L110.7 22.9113H108.291ZM126.939 23.1807C126.168 23.1807 125.47 23.0381 124.847 22.7528C124.224 22.4623 123.73 22.0423 123.365 21.4929C123.006 20.9435 122.826 20.2699 122.826 19.4723C122.826 18.7855 122.958 18.2202 123.222 17.7765C123.487 17.3327 123.843 16.9814 124.292 16.7226C124.741 16.4637 125.243 16.2683 125.798 16.1362C126.352 16.0041 126.918 15.9038 127.494 15.8351C128.223 15.7506 128.814 15.6819 129.269 15.6291C129.723 15.5709 130.053 15.4785 130.259 15.3517C130.465 15.2249 130.568 15.0189 130.568 14.7336V14.6782C130.568 13.9861 130.373 13.4499 129.982 13.0696C129.596 12.6892 129.02 12.499 128.254 12.499C127.457 12.499 126.828 12.676 126.368 13.03C125.914 13.3786 125.6 13.7669 125.425 14.1948L123.199 13.6877C123.463 12.9481 123.848 12.3511 124.356 11.8968C124.868 11.4372 125.457 11.1044 126.123 10.8984C126.788 10.6871 127.488 10.5814 128.223 10.5814C128.709 10.5814 129.224 10.6395 129.768 10.7557C130.317 10.8667 130.83 11.0727 131.305 11.3738C131.786 11.6749 132.179 12.1055 132.486 12.6654C132.792 13.2201 132.945 13.9412 132.945 14.8287V22.9113H130.632V21.2473H130.536C130.383 21.5537 130.153 21.8548 129.847 22.1506C129.541 22.4464 129.147 22.6921 128.666 22.8875C128.186 23.083 127.61 23.1807 126.939 23.1807ZM127.454 21.2789C128.109 21.2789 128.669 21.1495 129.134 20.8907C129.604 20.6318 129.961 20.2937 130.204 19.8764C130.452 19.4538 130.576 19.0021 130.576 18.5214V16.9524C130.492 17.0369 130.328 17.1161 130.085 17.1901C129.847 17.2588 129.575 17.3195 129.269 17.3724C128.962 17.4199 128.664 17.4648 128.373 17.5071C128.083 17.5441 127.84 17.5757 127.644 17.6022C127.185 17.6603 126.765 17.758 126.384 17.8954C126.009 18.0327 125.708 18.2308 125.481 18.4897C125.259 18.7432 125.148 19.0813 125.148 19.5039C125.148 20.0903 125.365 20.5341 125.798 20.8352C126.231 21.131 126.783 21.2789 127.454 21.2789ZM135.432 22.9113V10.7399H137.722V12.6734H137.849C138.07 12.0183 138.461 11.5032 139.021 11.1282C139.587 10.7478 140.226 10.5576 140.939 10.5576C141.087 10.5576 141.261 10.5629 141.462 10.5735C141.668 10.584 141.829 10.5972 141.945 10.6131V12.8794C141.85 12.853 141.681 12.8239 141.438 12.7922C141.195 12.7552 140.952 12.7368 140.709 12.7368C140.149 12.7368 139.65 12.8556 139.211 13.0933C138.778 13.3258 138.435 13.6507 138.181 14.068C137.928 14.4801 137.801 14.9502 137.801 15.4785V22.9113H135.432ZM147.447 23.149C146.464 23.149 145.587 22.8981 144.816 22.3962C144.05 21.8891 143.448 21.168 143.009 20.233C142.576 19.2926 142.36 18.1648 142.36 16.8494C142.36 15.534 142.579 14.4087 143.017 13.4737C143.461 12.5387 144.068 11.8228 144.84 11.3263C145.611 10.8297 146.485 10.5814 147.463 10.5814C148.218 10.5814 148.826 10.7082 149.285 10.9618C149.75 11.21 150.109 11.5006 150.363 11.8334C150.622 12.1662 150.822 12.4594 150.965 12.713H151.108V6.68274H153.477V22.9113H151.163V21.0175H150.965C150.822 21.2763 150.616 21.5721 150.347 21.905C150.083 22.2378 149.718 22.5283 149.253 22.7766C148.789 23.0249 148.186 23.149 147.447 23.149ZM147.97 21.1284C148.651 21.1284 149.227 20.9488 149.697 20.5896C150.173 20.225 150.532 19.7205 150.775 19.076C151.023 18.4316 151.147 17.6814 151.147 16.8256C151.147 15.9804 151.026 15.2408 150.783 14.6068C150.54 13.9729 150.183 13.479 149.713 13.125C149.243 12.7711 148.662 12.5941 147.97 12.5941C147.257 12.5941 146.662 12.779 146.187 13.1488C145.711 13.5186 145.352 14.0231 145.109 14.6623C144.871 15.3015 144.753 16.0226 144.753 16.8256C144.753 17.6391 144.874 18.3708 145.117 19.0206C145.36 19.6704 145.719 20.1854 146.195 20.5658C146.676 20.9409 147.267 21.1284 147.97 21.1284ZM170.467 10.9459C170.382 10.1958 170.033 9.61466 169.421 9.20261C168.808 8.78527 168.037 8.5766 167.107 8.5766C166.441 8.5766 165.865 8.68226 165.379 8.89357C164.893 9.09959 164.516 9.38486 164.246 9.74937C163.982 10.1086 163.85 10.518 163.85 10.9776C163.85 11.3632 163.94 11.6961 164.119 11.976C164.304 12.256 164.545 12.4911 164.841 12.6813C165.142 12.8662 165.464 13.022 165.807 13.1488C166.151 13.2703 166.481 13.3707 166.798 13.4499L168.383 13.862C168.9 13.9888 169.431 14.1605 169.975 14.377C170.519 14.5936 171.024 14.8789 171.489 15.2329C171.954 15.5868 172.329 16.0253 172.614 16.5483C172.905 17.0712 173.05 17.6973 173.05 18.4263C173.05 19.3455 172.812 20.1616 172.337 20.8748C171.867 21.588 171.182 22.1506 170.284 22.5627C169.392 22.9747 168.311 23.1807 167.043 23.1807C165.828 23.1807 164.777 22.9879 163.89 22.6023C163.002 22.2166 162.307 21.6699 161.806 20.962C161.304 20.2488 161.026 19.4036 160.974 18.4263H163.43C163.478 19.0127 163.668 19.5013 164.001 19.8922C164.339 20.2779 164.769 20.5658 165.292 20.756C165.82 20.9409 166.399 21.0333 167.028 21.0333C167.72 21.0333 168.335 20.925 168.874 20.7084C169.418 20.4865 169.846 20.1801 170.158 19.7892C170.469 19.393 170.625 18.9308 170.625 18.4025C170.625 17.9218 170.488 17.5282 170.213 17.2218C169.944 16.9154 169.577 16.6618 169.112 16.4611C168.652 16.2603 168.132 16.0834 167.551 15.9302L165.633 15.4072C164.333 15.0532 163.303 14.5329 162.543 13.8461C161.787 13.1594 161.409 12.2507 161.409 11.1202C161.409 10.1852 161.663 9.36901 162.17 8.67169C162.677 7.97437 163.364 7.43289 164.23 7.04725C165.097 6.65633 166.074 6.46086 167.162 6.46086C168.261 6.46086 169.23 6.65368 170.07 7.03932C170.916 7.42496 171.581 7.95588 172.067 8.63207C172.553 9.30298 172.807 10.0743 172.828 10.9459H170.467ZM180.798 10.7399V12.6417H174.15V10.7399H180.798ZM175.932 7.82381H178.302V19.3375C178.302 19.7971 178.37 20.1432 178.508 20.3756C178.645 20.6028 178.822 20.7586 179.039 20.8431C179.261 20.9224 179.501 20.962 179.76 20.962C179.95 20.962 180.116 20.9488 180.259 20.9224C180.402 20.896 180.513 20.8748 180.592 20.859L181.02 22.8162C180.882 22.8691 180.687 22.9219 180.433 22.9747C180.18 23.0328 179.863 23.0645 179.482 23.0698C178.859 23.0804 178.278 22.9694 177.739 22.737C177.2 22.5045 176.764 22.1453 176.432 21.6593C176.099 21.1733 175.932 20.5631 175.932 19.8288V7.82381ZM190.459 17.8637V10.7399H192.837V22.9113H190.507V20.8035H190.38C190.1 21.4533 189.651 21.9948 189.033 22.4279C188.42 22.8558 187.657 23.0698 186.743 23.0698C185.961 23.0698 185.269 22.8981 184.667 22.5547C184.07 22.2061 183.6 21.691 183.256 21.0095C182.918 20.3281 182.749 19.4855 182.749 18.4817V10.7399H185.119V18.1965C185.119 19.0259 185.348 19.6862 185.808 20.1775C186.268 20.6688 186.865 20.9144 187.599 20.9144C188.043 20.9144 188.484 20.8035 188.922 20.5816C189.366 20.3598 189.733 20.0243 190.024 19.5753C190.319 19.1262 190.465 18.5557 190.459 17.8637ZM199.907 23.149C198.925 23.149 198.048 22.8981 197.276 22.3962C196.51 21.8891 195.908 21.168 195.47 20.233C195.036 19.2926 194.82 18.1648 194.82 16.8494C194.82 15.534 195.039 14.4087 195.478 13.4737C195.921 12.5387 196.529 11.8228 197.3 11.3263C198.071 10.8297 198.946 10.5814 199.923 10.5814C200.678 10.5814 201.286 10.7082 201.746 10.9618C202.21 11.21 202.57 11.5006 202.823 11.8334C203.082 12.1662 203.283 12.4594 203.425 12.713H203.568V6.68274H205.937V22.9113H203.624V21.0175H203.425C203.283 21.2763 203.077 21.5721 202.807 21.905C202.543 22.2378 202.179 22.5283 201.714 22.7766C201.249 23.0249 200.647 23.149 199.907 23.149ZM200.43 21.1284C201.112 21.1284 201.687 20.9488 202.158 20.5896C202.633 20.225 202.992 19.7205 203.235 19.076C203.484 18.4316 203.608 17.6814 203.608 16.8256C203.608 15.9804 203.486 15.2408 203.243 14.6068C203 13.9729 202.644 13.479 202.173 13.125C201.703 12.7711 201.122 12.5941 200.43 12.5941C199.717 12.5941 199.123 12.779 198.647 13.1488C198.172 13.5186 197.813 14.0231 197.57 14.6623C197.332 15.3015 197.213 16.0226 197.213 16.8256C197.213 17.6391 197.334 18.3708 197.577 19.0206C197.82 19.6704 198.18 20.1854 198.655 20.5658C199.136 20.9409 199.728 21.1284 200.43 21.1284ZM208.65 22.9113V10.7399H211.019V22.9113H208.65ZM209.846 8.86187C209.434 8.86187 209.08 8.72452 208.784 8.44981C208.494 8.16983 208.348 7.83702 208.348 7.45138C208.348 7.06045 208.494 6.72764 208.784 6.45294C209.08 6.17295 209.434 6.03296 209.846 6.03296C210.258 6.03296 210.609 6.17295 210.9 6.45294C211.196 6.72764 211.344 7.06045 211.344 7.45138C211.344 7.83702 211.196 8.16983 210.9 8.44981C210.609 8.72452 210.258 8.86187 209.846 8.86187ZM218.664 23.157C217.523 23.157 216.527 22.8955 215.676 22.3725C214.826 21.8495 214.166 21.1178 213.695 20.1775C213.225 19.2372 212.99 18.1384 212.99 16.8811C212.99 15.6185 213.225 14.5144 213.695 13.5688C214.166 12.6232 214.826 11.8889 215.676 11.3659C216.527 10.8429 217.523 10.5814 218.664 10.5814C219.805 10.5814 220.801 10.8429 221.651 11.3659C222.502 11.8889 223.162 12.6232 223.632 13.5688C224.102 14.5144 224.338 15.6185 224.338 16.8811C224.338 18.1384 224.102 19.2372 223.632 20.1775C223.162 21.1178 222.502 21.8495 221.651 22.3725C220.801 22.8955 219.805 23.157 218.664 23.157ZM218.672 21.168C219.411 21.168 220.024 20.9726 220.51 20.5816C220.996 20.1907 221.355 19.6704 221.588 19.0206C221.826 18.3708 221.944 17.655 221.944 16.8731C221.944 16.0966 221.826 15.3834 221.588 14.7336C221.355 14.0786 220.996 13.5529 220.51 13.1567C220.024 12.7605 219.411 12.5624 218.672 12.5624C217.927 12.5624 217.309 12.7605 216.818 13.1567C216.332 13.5529 215.97 14.0786 215.732 14.7336C215.499 15.3834 215.383 16.0966 215.383 16.8731C215.383 17.655 215.499 18.3708 215.732 19.0206C215.97 19.6704 216.332 20.1907 216.818 20.5816C217.309 20.9726 217.927 21.168 218.672 21.168Z" fill="#122634"/>
<path d="M51.4619 6.0693C51.8093 5.94505 52.4392 5.78019 52.8556 5.70026C53.2721 5.62033 54.3079 5.62941 55.1668 5.7276C56.0258 5.82578 57.0024 6.02851 57.3353 6.19408C57.6682 6.35966 58.0373 6.69336 58.1548 6.96185C58.2539 7.22825 58.2818 7.63225 58.1982 7.87776C58.0881 8.19311 56.5696 9.16734 52.5227 11.5287C49.488 13.2952 45.6933 15.3939 44.0613 16.2276C42.4496 17.0454 40.1592 18.1318 38.9703 18.6518C37.7815 19.1718 35.6457 20.039 34.2131 20.5858C32.7805 21.1326 31.2566 21.669 30.0721 21.989L26.8662 19.7461C25.0826 18.5037 23.6482 17.447 23.6564 17.3751C23.6667 17.2852 24.0489 17.0191 25.3538 16.2938L33.0112 17.333L35.3651 15.8531C36.662 15.0357 37.6907 14.297 37.6665 14.1849C37.6402 14.0908 34.7523 12.4672 31.2636 10.5927C27.7729 8.73616 24.7916 7.12007 24.6556 7.01344C24.4528 6.8445 24.7171 6.63786 25.8879 5.95184C26.7009 5.47998 27.6174 5.07462 27.9343 5.05618C28.2532 5.01975 32.058 5.91013 36.8596 7.15128C41.4643 8.33349 45.3685 9.32632 45.533 9.34512C45.7158 9.36601 46.9779 8.69043 48.352 7.84545C49.7261 7.00047 51.1327 6.19564 51.4619 6.0693Z" fill="#122634"/>
<path d="M20.4084 22.3056C21.4588 22.0248 22.9562 21.5583 23.7487 21.2663C24.5412 20.9743 25.2665 20.7839 25.37 20.8504C25.4735 20.9169 26.0172 21.3434 26.5751 21.808C27.202 22.3169 27.5122 22.6803 27.3923 22.7577C27.2724 22.8351 26.4109 23.0828 25.4763 23.3221C24.5417 23.5614 22.7763 23.9427 21.5817 24.1887C20.3892 24.4168 18.2217 24.752 16.7774 24.9149C15.3311 25.0957 13.2234 25.2242 11.5471 25.3194C9.31077 25.4464 5.25176 25.2826 0.110821 24.4674C2.85578 24.3439 3.98098 24.4546 7.87682 24.2172C9.48533 24.0814 11.0147 23.9024 12.2476 23.8065C13.4805 23.7106 14.9841 23.4346 16.2314 23.2128C17.4787 22.991 19.358 22.5863 20.4084 22.3056Z" fill="#122634"/>
<path d="M20.4084 22.3056C21.4588 22.0248 22.9562 21.5583 23.7487 21.2663C24.5412 20.9743 25.2665 20.7839 25.37 20.8504C25.4735 20.9169 26.0172 21.3434 26.5751 21.808C27.202 22.3169 27.5122 22.6803 27.3923 22.7577C27.2724 22.8351 26.4109 23.0828 25.4763 23.3221C24.5417 23.5614 22.7763 23.9427 21.5817 24.1887C20.3892 24.4168 18.2217 24.752 16.7774 24.9149C15.3311 25.0957 13.2234 25.2242 11.5471 25.3194C9.31077 25.4464 5.25176 25.2826 0.110821 24.4674C2.85578 24.3439 3.98098 24.4546 7.87682 24.2172C9.48533 24.0814 11.0147 23.9024 12.2476 23.8065C13.4805 23.7106 14.9841 23.4346 16.2314 23.2128C17.4787 22.991 19.358 22.5863 20.4084 22.3056Z" fill="url(#paint0_linear_8_3)"/>
<path d="M41.278 19.2707L47.3319 15.9487C47.5069 15.8527 47.6948 16.0522 47.5852 16.2191C46.6073 17.7083 44.2451 21.291 44.0808 21.4051C42.4827 22.5138 41.4277 22.4994 41.3616 21.8201L41.1791 19.4535C41.1733 19.3784 41.212 19.3069 41.278 19.2707Z" fill="#122634"/>
<path d="M41.278 19.2707L47.3319 15.9487C47.5069 15.8527 47.6948 16.0522 47.5852 16.2191C46.6073 17.7083 44.2451 21.291 44.0808 21.4051C42.4827 22.5138 41.4277 22.4994 41.3616 21.8201L41.1791 19.4535C41.1733 19.3784 41.212 19.3069 41.278 19.2707Z" fill="url(#paint1_linear_8_3)"/>
<defs>
<linearGradient id="paint0_linear_8_3" x1="27.4914" y1="19.762" x2="-9.23014" y2="32.15" gradientUnits="userSpaceOnUse">
<stop stop-color="#F4F2EE" stop-opacity="0"/>
<stop offset="1" stop-color="#F4F2EE"/>
</linearGradient>
<linearGradient id="paint1_linear_8_3" x1="42.9763" y1="23.3014" x2="37.3552" y2="14.7131" gradientUnits="userSpaceOnUse">
<stop stop-color="#F4F2EE" stop-opacity="0"/>
<stop offset="1" stop-color="#F4F2EE"/>
</linearGradient>
</defs>
</svg>
